<svg width="47" height="47" viewBox="0 0 47 47" fill="none" xmlns="http://www.w3.org/2000/svg">
<rect width="47" height="47" fill="white"/>
<path d="M18.6571 12C14.9857 12 12 15.1248 12 18.9652V29.0365C12 32.8769 14.9857 36 18.6571 36H28.3429C32.0143 36 35 32.8769 35 29.0365V18.9652C35 15.1248 32.0143 12 28.3429 12H18.6571ZM18.6571 14.0632H28.3429C30.9559 14.0632 33.0292 16.232 33.0292 18.9652V29.0365C33.0292 31.7698 30.9559 33.9368 28.3429 33.9368H18.6571C16.0441 33.9368 13.9724 31.7698 13.9724 29.0365V18.9652C13.9724 16.232 16.0441 14.0632 18.6571 14.0632ZM29.6727 16.1264C28.9107 16.1264 28.2934 16.7721 28.2934 17.5691C28.2934 18.3661 28.9107 19.0118 29.6727 19.0118C30.4346 19.0118 31.0519 18.3661 31.0519 17.5691C31.0519 16.7721 30.4346 16.1264 29.6727 16.1264ZM23.5 17.8207C20.2489 17.8207 17.5926 20.5993 17.5926 24C17.5926 27.4007 20.2489 30.1793 23.5 30.1793C26.7511 30.1793 29.409 27.4007 29.409 24C29.409 20.5993 26.7511 17.8207 23.5 17.8207ZM23.5 19.8839C25.6853 19.8839 27.4366 21.7142 27.4366 24C27.4366 26.2859 25.6853 28.1161 23.5 28.1161C21.3147 28.1161 19.565 26.2859 19.565 24C19.565 21.7142 21.3147 19.8839 23.5 19.8839Z" fill="#575757"/>
</svg>
