<svg width="47" height="47" viewBox="0 0 47 47" fill="none" xmlns="http://www.w3.org/2000/svg">
<rect width="47" height="47" fill="white"/>
<path d="M34 17.1305C33.191 17.4919 32.321 17.7363 31.4081 17.8463C32.3398 17.2837 33.0552 16.3932 33.3922 15.3323C32.5202 15.8533 31.5546 16.2312 30.526 16.4348C29.7032 15.5519 28.5301 15 27.232 15C24.7393 15 22.7189 17.0344 22.7189 19.544C22.7189 19.9003 22.7584 20.2472 22.8357 20.5796C19.0846 20.3903 15.759 18.5807 13.533 15.8317C13.1444 16.5026 12.9219 17.283 12.9219 18.116C12.9219 19.6927 13.7183 21.0833 14.9297 21.8985C14.1899 21.8752 13.4939 21.6707 12.8854 21.3301C12.8845 21.3493 12.8845 21.3682 12.8845 21.3872C12.8845 23.5893 14.4404 25.4254 16.5049 25.8432C16.1265 25.947 15.7279 26.002 15.3162 26.002C15.0251 26.002 14.7429 25.9742 14.4668 25.921C15.0415 27.7262 16.708 29.0402 18.6833 29.0769C17.1374 30.2959 15.1917 31.022 13.077 31.022C12.7129 31.022 12.3534 31.0004 12 30.9587C13.9982 32.248 16.3702 33 18.9193 33C27.2207 33 31.7597 26.076 31.7597 20.0706C31.7597 19.8737 31.7552 19.6781 31.747 19.4833C32.6285 18.8421 33.3936 18.0419 33.999 17.1305" fill="#575757"/>
</svg>
